<?xml version="1.0" standalone="no"?>
<!DOCTYPE svg PUBLIC "-//W3C//DTD SVG 20010904//EN"
 "http://www.w3.org/TR/2001/REC-SVG-20010904/DTD/svg10.dtd">
<svg version="1.0" xmlns="http://www.w3.org/2000/svg"
 width="128.000000pt" height="128.000000pt" viewBox="0 0 128.000000 128.000000"
 preserveAspectRatio="xMidYMid meet">
<metadata>
Created by potrace 1.11, written by Peter Selinger 2001-2013
</metadata>
<g transform="translate(0.000000,128.000000) scale(0.100000,-0.100000)"
fill="#000000" stroke="none">
<path d="M518 1140 c-14 -11 -28 -32 -31 -47 -8 -40 -69 -73 -134 -73 -58 0
-174 -31 -234 -62 -35 -19 -45 -31 -54 -63 -6 -22 -19 -57 -30 -78 -17 -33
-18 -44 -8 -90 6 -29 9 -83 6 -120 -7 -82 -5 -85 118 -158 145 -86 142 -82
134 -192 -6 -79 -4 -105 15 -175 l22 -82 332 0 332 0 27 42 c29 45 32 64 17
88 -7 11 -3 20 15 35 13 11 69 97 125 190 l102 170 -5 66 c-3 37 -17 101 -32
142 -23 66 -25 86 -19 150 8 92 -6 127 -81 195 -95 87 -119 92 -283 61 -64
-12 -82 -11 -155 4 -107 22 -148 22 -179 -3z m237 -130 c10 -11 16 -20 13 -20
-3 0 -13 9 -23 20 -10 11 -16 20 -13 20 3 0 13 -9 23 -20z m215 -35 c29 -31
22 -42 -10 -15 -26 23 -45 26 -37 7 4 -10 -5 -14 -29 -15 -35 -1 -36 3 -11 36
16 20 62 14 87 -13z m-259 -42 c13 -16 12 -17 -3 -4 -10 7 -18 15 -18 17 0 8
8 3 21 -13z m-30 -10 c13 -16 12 -17 -3 -4 -10 7 -18 15 -18 17 0 8 8 3 21
-13z m-314 -18 c-4 -8 -17 -14 -29 -14 l-23 2 23 4 c12 2 22 12 22 20 0 9 3
14 6 10 4 -3 4 -13 1 -22z m-8 -114 c12 -8 8 -17 -20 -50 -40 -47 -60 -48 -73
-2 -8 28 -7 36 9 47 21 16 63 18 84 5z m427 -45 c19 -14 18 -15 -6 -41 -22
-24 -70 -55 -85 -55 -3 0 -5 16 -5 35 0 35 -13 47 -23 21 -4 -11 -60 -46 -73
-46 -1 0 -7 14 -13 30 -9 27 -7 32 14 46 18 12 37 15 69 10 27 -4 47 -3 51 4
9 14 48 12 71 -4z m234 -29 c0 -2 -17 -19 -37 -38 l-38 -34 34 38 c33 34 41
42 41 34z m-60 -21 c0 -2 -8 -10 -17 -17 -16 -13 -17 -12 -4 4 13 16 21 21 21
13z m-365 -456 c10 -11 16 -20 13 -20 -3 0 -13 9 -23 20 -10 11 -16 20 -13 20
3 0 13 -9 23 -20z m-7 -155 c-3 -3 -9 2 -12 12 -6 14 -5 15 5 6 7 -7 10 -15 7
-18z"/>
</g>
</svg>
