<svg xmlns="http://www.w3.org/2000/svg" xmlns:xlink="http://www.w3.org/1999/xlink"><symbol id="icon-bird" viewBox="0 0 77.9 88.2"><path d="M69.2 60l8.7-3.8-8.2-2.1 2.3-8.5-7.2 5.8c-5-6-13-9.2-21.2-7.8-12.2 2.1-20.4 13.8-18.3 26.1.1.3.1.7.2 1l-4.1-2.5c-2.8-1.7-6.2-1.9-6.2.3 0 1.6 2.1 3.5 4.4 4.5l-.1.1c-2.4.1-4.6 1.2-4.6 2.9 0 .8.6 1.6 1.5 2.1.8.5 1.9.8 3 .8l.1.1c-2.4 1-4.6 3-4.6 4.7 0 2.2 3.5 1.9 6.4.2l5.7-3.4 1.1-.7 1.2-.7c4.9 6.7 13.4 10.5 22.1 8.9 12.3-2.1 20.4-13.8 18.3-26.1-.2-.7-.3-1.3-.5-1.9zm-14.4 4.2c-2.8.5-5.5-1.4-6-4.2-.5-2.8 1.4-5.5 4.2-6 2.8-.5 5.5 1.4 6 4.2.5 2.8-1.4 5.5-4.2 6zM38.2 33c2.4-3.4 3.8-7.5 3.8-12C42 9.4 32.6 0 21 0S0 9.4 0 21s9.4 21 21 21c4.5 0 8.7-1.4 12.1-3.9l5.3 1.7c.7.2 1.8-1 1.6-1.6L38.2 33zm-7.7-13.1l-6.1 8c-1.1 1.5-2.9 1.9-4.4 1.3-1-.2-1.9-.7-2.6-1.6l-5.6-7.4c-1.6-2.1-1.4-5.4.4-7.2s4.7-1.6 6.3.5l2.6 3.3 2.8-3.7c1.5-1.9 4.1-2.1 5.8-.4l.5.6c1.6 1.7 1.8 4.7.3 6.6z"/></symbol><symbol id="icon-coffee" viewBox="0 0 3.2 4"><path d="M2.4 2.1c.1 0 .1 0 .2-.1.1 0 .3.1.3.3 0 .2-.1.4-.2.5l-.1.1c.1 0 .1.1.1.1.1 0 .2 0 .2.1.1.1.2.1.3.3v.2c-.2.1-.3.1-.3.2-.3 0-.6.1-.9.1h-.4s-.1 0-.1-.1h.1c.3 0 .6-.1.9-.2.1 0 .2-.1.2-.2.3 0 .3-.1.2-.2-.1-.1-.3-.2-.5-.2-.1 0-.2 0-.3.2 0 0 .1 0 .2.1s.1.2 0 .2-.1.1-.2.1c-.3.1-.7.1-1.1.1-.1 0-.2-.1-.3-.2v-.2s-.1-.1-.1-.2c-.1 0-.1 0-.2.1-.1 0-.2.1-.2.2s.1.2.2.3c.1.1.2.1.3.2.1 0 .2 0 .3.1-.3 0-.6-.1-.8-.3-.2-.2-.2-.4.1-.6.1 0 .1-.1.2-.1 0 0 0-.1-.1-.1-.1-.2-.2-.4-.2-.6 0-.3.1-.4.4-.4-.1.1-.2.1-.2.1 0 .1.1.2.1.2.5-.2 1-.3 1.6-.1.1-.2.1-.4-.1-.5-.2-.1-.3-.1-.5 0-.1 0-.2.1-.4.1H.9c-.2 0-.3-.2-.2-.4 0-.1.1-.2.2-.2.1-.1.3-.2.5-.3.1-.1.2-.1.2-.2.1-.1.1-.3-.1-.4-.2-.1-.4 0-.6.1L.8.4C.7.4.8.3.8.3c0-.2.2-.2.3-.2.1-.1.3-.1.5-.1.4.1.5.5.2.8-.2.2-.4.3-.6.4-.1 0-.1.1-.2.2 0 .1.1.1.1.1h.5c.2 0 .3 0 .4.1.1.1.2.2.2.4.1 0 .2 0 .2.1zm-1.9.5s0 .1 0 0c.1.4.3.6.5.8.3.2.6.2.9-.1.2-.3.3-.6.2-1-.4.4-1 .4-1.6.3zm1.8.2s0 .1 0 0c.2-.1.3-.3.4-.5v-.1h-.1c-.1 0-.1.1-.2.2 0 .1-.1.3-.1.4z"/></symbol><symbol id="icon-monster" viewBox="0 0 91.1 79.8"><path d="M64.9 14.5c0-.3 0-.6-.1-.9-.7-2.8-1.9-4.8-2.9-6.1C55-1.3 40.6.1 39.6.1h-.1c-1.1 0-14.6-1.3-21.2 7.2-1.6 2.1-2.5 4.4-2.9 6.3-.1.3-.1.9-.1 1.2l3.1 56.3-.6 6.9c.2.6.6.5.9.7 1.7 1.4 5 1.1 6.1 1 .2 0 .4 0 .6-.1 1 0 4.1.1 5.8-1.2.5-.4.7-.4.9-.8l-.3-3.1c-.4-2 1.4-3.4 3.6-3.4h9.3c2.3 0 4 1.4 3.8 3.5l-.3 3.3c.2.6.6.5.9.8 1.7 1.4 5 1.1 6.1 1h.6c1 0 4.1.1 5.8-1.2.5-.4.7-.4.9-.8l-.6-7.2 3-56zm-25 22.6c-7.8 0-14.1-6.3-14.1-14s6.3-14 14.1-14S54 15.4 54 23.1s-6.3 14-14.1 14zm0-22.3c-4.6 0-8.4 3.7-8.4 8.3s3.8 8.3 8.4 8.3 8.4-3.7 8.4-8.3-3.8-8.3-8.4-8.3zm3.3 14.3c-.7 0-1.4-.6-1.4-1.3s.6-1.3 1.4-1.3c.7 0 1.4.6 1.4 1.3s-.6 1.3-1.4 1.3zm0-5.3c-1.7 0-3.1-1.4-3.1-3 0-1.7 1.4-3 3.1-3s3.1 1.4 3.1 3-1.4 3-3.1 3zm-9.7 12.3c-.4-.2-.8-.4-1.4-.4-.9 0-1.9.4-2.7.7-1.3.6-2 1.7-2.8 2.8-.5.8-1 1.6-1.7 2.2l-.6.6c-1.3 1.4-2.2 3.2-3 4.9-.8 1.6-1.7 3.3-2.9 4.7-1.7 1.8-2.9 3.9-4.2 5.9-1.3 2.1-2.6 4.2-4.3 6.1-2.5 2.7-5.5 4.8-8.6 6.1-.9.4-1.4 1.1-1.3 1.9 0 .8.5 1.5 1.3 1.8 1.7.6 3.3.8 5 .8h.6c2.6-.1 7.4-.8 10.1-3.9.3-.4.9-1 1.6-1.6.8-.8 1.6-1.6 2-2.1 3-3.6 5.8-5.2 9.6-6.6.8-.3 1.3-1.1 1.3-1.9-.3-6.8.5-15.8 2-22zm-26.4 37c-1.3.1-2.4-.3-2.5-1.1-.1-.7.9-1.5 2.2-1.6s2.4.3 2.5 1.1c0 .8-.9 1.5-2.2 1.6zm6.9-2.2c-1.5.5-2.9.2-3.2-.7-.3-.9.6-2 2.1-2.5s2.9-.2 3.2.7c.3.8-.6 2-2.1 2.5zm6-4.5c-.6.8-1.8 1-2.7.4-.9-.6-1.1-1.8-.5-2.6.6-.8 1.8-1 2.7-.4.9.6 1.1 1.8.5 2.6zm70.1-41.7c-2.8-.9-5.3-1.2-7.6-1-3.5.4-6.6 2.1-8.2 4.7-.8 1.4-1.3 2.9-1.7 4.4-.3 1.2-.7 2.5-1.2 3.6-.8 1.7-2.1 3.1-3.7 4.2s-3.5 1.7-5.3 1.8h-.6c-1.7 0-3.4-.4-4.9-1.2-1.7-.9-3.1-2.2-4.1-3.7-1.8 3.2-3.6 6.3-5.4 9.5-.4.7-.8 1.4-1 2.2-.3 1.4.1 3.4 2.1 5.2 1.2 1 2.7 1.8 4.9 2.5 3 1 6.3 1.8 10 2.3 3.3.5 7 .8 9.9-1 3.1-1.9 4.5-5.6 5.7-9.5 1.1-3.6 2.2-7.2 3.3-10.7 1.3-4.3 3.1-9.1 7.2-10.9l.6-.3c.1 0 .2-.1.3-.1.5-.2.7-.6.7-1.1-.4-.5-.6-.8-1-.9zM67.2 57.6c-1.6.2-3.1-.5-3.2-1.5-.1-1 1.1-2.1 2.8-2.3 1.6-.2 3.1.5 3.2 1.5.1 1.1-1.1 2.1-2.8 2.3zm7-3.8c-.6.8-1.7 1-2.5.4s-1-1.8-.5-2.6c.6-.8 1.7-1 2.5-.4s1 1.7.5 2.6zm3.3-5.2c-.6 1.3-1.8 2.1-2.7 1.6-.9-.4-1.2-1.9-.6-3.2s1.8-2.1 2.7-1.6c.9.4 1.2 1.8.6 3.2zm2.8-7.4c-.3 1.4-1.4 2.4-2.4 2.1-1-.3-1.5-1.6-1.1-3 .3-1.4 1.4-2.4 2.4-2.1.9.2 1.4 1.6 1.1 3zm0-5.3c-.9.1-1.8-.4-1.9-1.2-.1-.7.6-1.4 1.6-1.5.9-.1 1.8.4 1.9 1.2 0 .7-.7 1.4-1.6 1.5zm3.5-5.8c-1.1 1.1-2.5 1.4-3.2.7s-.3-2.1.8-3.1 2.5-1.4 3.2-.7c.7.6.3 2-.8 3.1z"/></symbol></svg>