<svg xmlns="http://www.w3.org/2000/svg"><symbol id="bird" viewBox="0 0 77.9 88.2"><style>.st0{display:none}.st1{display:inline;stroke:#fff;stroke-width:3.2088;stroke-linecap:round;stroke-miterlimit:10}</style><g class="st0"><path class="st1" d="M-251.7-127.4H923.9v710.1H-251.7z"/></g><path d="M69.2 60l8.7-3.8-8.2-2.1 2.3-8.5-7.2 5.8c-5-6-13-9.2-21.2-7.8-12.2 2.1-20.4 13.8-18.3 26.1.1.3.1.7.2 1l-4.1-2.5c-2.8-1.7-6.2-1.9-6.2.3 0 1.6 2.1 3.5 4.4 4.5l-.1.1c-2.4.1-4.6 1.2-4.6 2.9 0 .8.6 1.6 1.5 2.1.8.5 1.9.8 3 .8l.1.1c-2.4 1-4.6 3-4.6 4.7 0 2.2 3.5 1.9 6.4.2l5.7-3.4 1.1-.7 1.2-.7c4.9 6.7 13.4 10.5 22.1 8.9 12.3-2.1 20.4-13.8 18.3-26.1-.2-.7-.3-1.3-.5-1.9zm-14.4 4.2c-2.8.5-5.5-1.4-6-4.2-.5-2.8 1.4-5.5 4.2-6 2.8-.5 5.5 1.4 6 4.2.5 2.8-1.4 5.5-4.2 6zM38.2 33c2.4-3.4 3.8-7.5 3.8-12C42 9.4 32.6 0 21 0S0 9.4 0 21s9.4 21 21 21c4.5 0 8.7-1.4 12.1-3.9l5.3 1.7c.7.2 1.8-1 1.6-1.6L38.2 33zm-7.7-13.1l-6.1 8c-1.1 1.5-2.9 1.9-4.4 1.3-1-.2-1.9-.7-2.6-1.6l-5.6-7.4c-1.6-2.1-1.4-5.4.4-7.2s4.7-1.6 6.3.5l2.6 3.3 2.8-3.7c1.5-1.9 4.1-2.1 5.8-.4l.5.6c1.6 1.7 1.8 4.7.3 6.6z"/></symbol><symbol id="coffee" viewBox="0 0 3.2 4"><path d="M2.4 2.1c.1 0 .1 0 .2-.1.1 0 .3.1.3.3 0 .2-.1.4-.2.5l-.1.1c.1 0 .1.1.1.1.1 0 .2 0 .2.1.1.1.2.1.3.3v.2c-.2.1-.3.1-.3.2-.3 0-.6.1-.9.1h-.4s-.1 0-.1-.1h.1c.3 0 .6-.1.9-.2.1 0 .2-.1.2-.2.3 0 .3-.1.2-.2-.1-.1-.3-.2-.5-.2-.1 0-.2 0-.3.2 0 0 .1 0 .2.1s.1.2 0 .2-.1.1-.2.1c-.3.1-.7.1-1.1.1-.1 0-.2-.1-.3-.2v-.2s-.1-.1-.1-.2c-.1 0-.1 0-.2.1-.1 0-.2.1-.2.2s.1.2.2.3c.1.1.2.1.3.2.1 0 .2 0 .3.1-.3 0-.6-.1-.8-.3-.2-.2-.2-.4.1-.6.1 0 .1-.1.2-.1 0 0 0-.1-.1-.1-.1-.2-.2-.4-.2-.6 0-.3.1-.4.4-.4-.1.1-.2.1-.2.1 0 .1.1.2.1.2.5-.2 1-.3 1.6-.1.1-.2.1-.4-.1-.5-.2-.1-.3-.1-.5 0-.1 0-.2.1-.4.1H.9c-.2 0-.3-.2-.2-.4 0-.1.1-.2.2-.2.1-.1.3-.2.5-.3.1-.1.2-.1.2-.2.1-.1.1-.3-.1-.4-.2-.1-.4 0-.6.1L.8.4C.7.4.8.3.8.3c0-.2.2-.2.3-.2.1-.1.3-.1.5-.1.4.1.5.5.2.8-.2.2-.4.3-.6.4-.1 0-.1.1-.2.2 0 .1.1.1.1.1h.5c.2 0 .3 0 .4.1.1.1.2.2.2.4.1 0 .2 0 .2.1zm-1.9.5s0 .1 0 0c.1.4.3.6.5.8.3.2.6.2.9-.1.2-.3.3-.6.2-1-.4.4-1 .4-1.6.3zm1.8.2s0 .1 0 0c.2-.1.3-.3.4-.5v-.1h-.1c-.1 0-.1.1-.2.2 0 .1-.1.3-.1.4z"/></symbol><symbol id="monster" viewBox="0 0 91.1 79.8"><path d="M64.9 14.5c0-.3 0-.6-.1-.9-.7-2.8-1.9-4.8-2.9-6.1C55-1.3 40.6.1 39.6.1h-.1c-1.1 0-14.6-1.3-21.2 7.2-1.6 2.1-2.5 4.4-2.9 6.3-.1.3-.1.9-.1 1.2l3.1 56.3-.6 6.9c.2.6.6.5.9.7 1.7 1.4 5 1.1 6.1 1 .2 0 .4 0 .6-.1 1 0 4.1.1 5.8-1.2.5-.4.7-.4.9-.8l-.3-3.1c-.4-2 1.4-3.4 3.6-3.4h9.3c2.3 0 4 1.4 3.8 3.5l-.3 3.3c.2.6.6.5.9.8 1.7 1.4 5 1.1 6.1 1h.6c1 0 4.1.1 5.8-1.2.5-.4.7-.4.9-.8l-.6-7.2 3-56zm-25 22.6c-7.8 0-14.1-6.3-14.1-14s6.3-14 14.1-14S54 15.4 54 23.1s-6.3 14-14.1 14zm0-22.3c-4.6 0-8.4 3.7-8.4 8.3s3.8 8.3 8.4 8.3 8.4-3.7 8.4-8.3-3.8-8.3-8.4-8.3zm3.3 14.3c-.7 0-1.4-.6-1.4-1.3s.6-1.3 1.4-1.3c.7 0 1.4.6 1.4 1.3s-.6 1.3-1.4 1.3zm0-5.3c-1.7 0-3.1-1.4-3.1-3 0-1.7 1.4-3 3.1-3s3.1 1.4 3.1 3-1.4 3-3.1 3zm-9.7 12.3c-.4-.2-.8-.4-1.4-.4-.9 0-1.9.4-2.7.7-1.3.6-2 1.7-2.8 2.8-.5.8-1 1.6-1.7 2.2l-.6.6c-1.3 1.4-2.2 3.2-3 4.9-.8 1.6-1.7 3.3-2.9 4.7-1.7 1.8-2.9 3.9-4.2 5.9-1.3 2.1-2.6 4.2-4.3 6.1-2.5 2.7-5.5 4.8-8.6 6.1-.9.4-1.4 1.1-1.3 1.9 0 .8.5 1.5 1.3 1.8 1.7.6 3.3.8 5 .8h.6c2.6-.1 7.4-.8 10.1-3.9.3-.4.9-1 1.6-1.6.8-.8 1.6-1.6 2-2.1 3-3.6 5.8-5.2 9.6-6.6.8-.3 1.3-1.1 1.3-1.9-.3-6.8.5-15.8 2-22zm-26.4 37c-1.3.1-2.4-.3-2.5-1.1-.1-.7.9-1.5 2.2-1.6s2.4.3 2.5 1.1c0 .8-.9 1.5-2.2 1.6zm6.9-2.2c-1.5.5-2.9.2-3.2-.7-.3-.9.6-2 2.1-2.5s2.9-.2 3.2.7c.3.8-.6 2-2.1 2.5zm6-4.5c-.6.8-1.8 1-2.7.4-.9-.6-1.1-1.8-.5-2.6.6-.8 1.8-1 2.7-.4.9.6 1.1 1.8.5 2.6zm70.1-41.7c-2.8-.9-5.3-1.2-7.6-1-3.5.4-6.6 2.1-8.2 4.7-.8 1.4-1.3 2.9-1.7 4.4-.3 1.2-.7 2.5-1.2 3.6-.8 1.7-2.1 3.1-3.7 4.2s-3.5 1.7-5.3 1.8h-.6c-1.7 0-3.4-.4-4.9-1.2-1.7-.9-3.1-2.2-4.1-3.7-1.8 3.2-3.6 6.3-5.4 9.5-.4.7-.8 1.4-1 2.2-.3 1.4.1 3.4 2.1 5.2 1.2 1 2.7 1.8 4.9 2.5 3 1 6.3 1.8 10 2.3 3.3.5 7 .8 9.9-1 3.1-1.9 4.5-5.6 5.7-9.5 1.1-3.6 2.2-7.2 3.3-10.7 1.3-4.3 3.1-9.1 7.2-10.9l.6-.3c.1 0 .2-.1.3-.1.5-.2.7-.6.7-1.1-.4-.5-.6-.8-1-.9zM67.2 57.6c-1.6.2-3.1-.5-3.2-1.5-.1-1 1.1-2.1 2.8-2.3 1.6-.2 3.1.5 3.2 1.5.1 1.1-1.1 2.1-2.8 2.3zm7-3.8c-.6.8-1.7 1-2.5.4s-1-1.8-.5-2.6c.6-.8 1.7-1 2.5-.4s1 1.7.5 2.6zm3.3-5.2c-.6 1.3-1.8 2.1-2.7 1.6-.9-.4-1.2-1.9-.6-3.2s1.8-2.1 2.7-1.6c.9.4 1.2 1.8.6 3.2zm2.8-7.4c-.3 1.4-1.4 2.4-2.4 2.1-1-.3-1.5-1.6-1.1-3 .3-1.4 1.4-2.4 2.4-2.1.9.2 1.4 1.6 1.1 3zm0-5.3c-.9.1-1.8-.4-1.9-1.2-.1-.7.6-1.4 1.6-1.5.9-.1 1.8.4 1.9 1.2 0 .7-.7 1.4-1.6 1.5zm3.5-5.8c-1.1 1.1-2.5 1.4-3.2.7s-.3-2.1.8-3.1 2.5-1.4 3.2-.7c.7.6.3 2-.8 3.1z"/></symbol><symbol id="trex" viewBox="0 0 51.5 64.87"><path fill="#394254" d="M26.8 63.58c-.05 0-.1 0-.15-.01-.68-.07-1.2-.44-1.55-1.12-.07-.06-.13-.14-.19-.21-.9-1.27-1.82-2.54-2.73-3.8-1.54-2.13-3.13-4.33-4.63-6.51-.23-.33-.31-.74-.24-1.14-.09-.06-.17-.13-.25-.17-.08-.05-.16-.11-.23-.17-.3-.28-.63-.54-.95-.8-1.18-.96-2.63-2.15-3.03-4.15-.33-.83-.55-1.69-.76-2.71-.07-.48-.19-.92-.32-1.38-.35-1.23-.78-2.76-.11-4.36.51-1.92 1.62-3.71 2.43-4.9.04-.06.08-.11.13-.16.09-.1.18-.21.28-.32.37-.44.82-.99 1.53-1.39.32-.18.7-.24 1.07-.16.1.02.2.03.3.03.33-.01.66-.19.96-.43l-.12-.06c-1.18-.41-2.35-.84-3.53-1.27-1.16-.43-2.33-.85-3.5-1.26-.11-.04-.21-.08-.3-.14-.06-.04-.28-.08-.43-.12-.31-.07-.67-.15-1.05-.33-.58-.11-1.1-.29-1.6-.46-.32-.11-.65-.22-.99-.31-.55-.11-1.19 0-1.58.27-.03.08-.06.22-.09.45-.07.51-.39.95-.86 1.17a1.5 1.5 0 0 1-1.45-.1c-.4-.26-.74-.66-1.09-1.27-.86-1.31-.34-2.73-.02-3.58.05-.15.11-.29.15-.43.12-.32.19-.59.26-.85.02-.08.05-.17.07-.26-.26-.25-.4-.54-.48-.79-.02-.07-.04-.14-.05-.21-.09-.58-.05-1.09.08-1.54-.07-.06-.14-.14-.2-.22-.84-1.11-.77-2.52.21-4.2.07-.12.16-.23.26-.32.14-.13.28-.25.42-.35a.885.885 0 0 1 0-.23c.08-1.01.34-1.89.6-2.74l.06-.21c.08-.27.24-.51.45-.7.86-.75 4.69-2.19 6.15-2.56.51-.29 1.04-.37 1.44-.43.13-.02.27-.04.4-.07.13-.03.27-.07.39-.05 1.09 0 2.08.17 3.03.4.19-.26.46-.46.79-.56l.23-.07c1.22-.36 2.53-.75 3.91-1.06-.13-.22-.24-.5-.3-.85-.03-.18-.03-.35.01-.53.23-1.19 1.28-2.23 2.54-2.53.08-.02.15-.03.23-.04.98-.07 1.8.19 2.46.39.25.08.5.16.75.21.28.03.56.09.83.15.24.06.45.1.62.11.41.01.8.18 1.08.49.03.03.06.06.08.1.4-.04.84-.14 1.3-.24.37-.08.73-.16 1.08-.22l.32-.07c3.16-.68 6.75-1.44 10.11-.53.07.02.13.04.19.07 3.52 1.5 6.19 3.88 6.98 6.21.44 1.31.45 2.54.45 2.68 0 .98-.17 1.95-.51 2.87-.04.12-.1.23-.17.33 1.97 3.72 2.3 8.09 2.45 12.3.01.26-.05.52-.17.75-.25.48-.49.96-.74 1.45-.75 1.49-1.52 3.04-2.51 4.45-.43.83-.96 1.67-1.48 2.46-.56 1.11-1.32 2.19-2.05 3.24-.35.5-.7 1-1.01 1.48-.08.12-.17.23-.28.32-.39.34-.78.63-1.18.93-.27.2-.53.4-.78.6.02.07.03.15.04.23.01.11.14.36.24.56.19.36.42.81.51 1.35.06.38-.02.77-.24 1.09-.89 1.31-1.83 2.61-2.75 3.87-1.1 1.5-2.23 3.05-3.23 4.59a1.5 1.5 0 0 1-.34.37l-2.04 2.85c-1.49 2.08-2.97 4.17-4.48 6.22-.21.38-.66.61-1.13.61zm-1.3-.85s.01 0 0 0c.01 0 0 0 0 0zm-6.02-32.59z"/><path fill="#3B9AD5" d="M44.92 10.67c-.32 0-.73-.08-1.05-.21-.77-.2-1.65-.13-2.39-.42-3.09-.46-6.74-.29-9.79.03l-.09-.12c-.17.09-.36.44-.6.33l-.17-.21c-.2.07-.22.37-.52.35-.31-.56-.68-1.15-1.12-1.6.01-.16.12-.29.24-.37.44.02.66.47 1 .69-.11-.63-.64-1.21-.91-1.77.21-.19.48-.35.7-.04.2.37.46.78.79 1.04.18-.39-.22-.75-.32-1.12-.09-.14-.25-.23-.24-.41-.35-.18-.43-.64-.84-.76a.543.543 0 0 1-.14-.41c.37-.18.82.04 1.23.06 2.23.5 4.86-.07 7.1-.49 2.44-.37 3.76 1.87 5.24 3.35.44.44.78 1.18 1.48 1.41.14.24.41.33.4.67M28.94 9.18c.3.44.72.82.81 1.36-.13.15-.23.13-.4.06-.28-.47-.74-.78-1.18-1.16-.09-.18.11-.29.14-.35.22-.15.45.01.63.09m-.6 1.17c.15.17.34.32.29.58-.08.06-.2.09-.29.12-.35-.48-.79-.88-1.21-1.26-.1-.05-.01-.2.09-.22.52-.05.77.48 1.12.78m-1.25.18c.05.2.3.34.17.57-.24-.05-.39-.12-.5-.33-.35-.2-.55-.55-.91-.65.09-.18.33-.2.55-.19l.69.6zm-1.43.22c.01.14-.15.25-.25.13-.19-.13-.59-.19-.51-.53.38-.12.46.27.76.4m-9.79.02c.19.87-.69 1.44-1.2 2.02-.71.22-1.84.36-2.51-.09-.09-.24-.21-.51-.12-.77 1.05.11 2.37.6 3.03-.6.33-.2.23-.67.17-1.01.34-.09.48.26.63.45m-1.44-.66c-.02.4-.16.77-.47 1.06-.53.23-.88-.31-1.42-.27a.313.313 0 0 1-.13-.25c.54-.29.98-.77 1.62-.89.19.04.43.13.4.35m10.13 34.3l-.07.12c-.36-.46-.62-1.09-.96-1.61-.26-.41-.47-.92-.85-1.26-.12-.33.1-.49.31-.68.77 1.03 1.19 2.23 1.57 3.43m-1.92-1.92c.64.77 1.05 1.71 1.1 2.71l-.09.08c-.25-.19-.25-.57-.39-.84a9.38 9.38 0 0 0-.81-1.36c-.07-.24.04-.4.19-.59m-.09 1.66c.23.67.68 1.19.62 1.99-.12.05-.09.11-.18.01-.15-.57-.44-1.08-.72-1.58.03-.16.02-.44.28-.42m24.66-33.48c0-.74.06-1.6-.38-2.2-1.58-2.28-3.84-3.83-6.14-5.31-3.15-.86-6.69-.03-9.8.63-1.25.21-2.63.74-3.87.38-.23-.15.04-.32.06-.48-.58-.01-1.09-.22-1.66-.27-.97-.19-1.82-.67-2.87-.59-.65.15-1.29.71-1.41 1.35.03.18.1.42.29.51 1.07 1.37 2.96.73 4.45.89.23.11.54-.07.75.1.07.14.2.35-.02.44-1.08.12-2.3-.02-3.44.18-2.47.19-4.82.91-6.93 1.54l1.11.86c.17.21-.08.29-.2.39-1.69-.45-3.32-1.03-5.16-1.03-.55.15-1.19.12-1.64.47-.92.11-5.12 1.72-5.75 2.27-.26.86-.53 1.71-.6 2.63.31.12.72-.1.97.13-.45.64-1.28.87-1.85 1.42-.42.72-.89 1.77-.31 2.54.53-.25.99-.65 1.46-.9 1.55-1.44 3.79-.74 5.81-.82 1.08-.72 2.33-1.4 3.82-1.22.79.12 1.55.46 1.91 1.22.27.95 1.42 1.11 2.25 1.37.75.18 1.48.36 2.25.5 1.13.18 2.69.6 3.56-.46.8-.42 1.85-.64 2.78-.48.11.11.34-.06.39.12.58.05 1.32-.03 1.87-.24 1.48-.8 2.89.15 4.07.93.39.1.92.07 1.3-.07-.78-.36-1.34-1.15-1.7-1.93-.23-.57-.59-1.31-.24-1.95.62-.05.24.81.67 1.03.05-.1.17-.17.21-.29.55.13.41.88.75 1.24.18-.03.19-.25.3-.38.55.23.65.91 1.07 1.27l-.02-.32c.03-.18.21-.19.39-.18.33.16.57.65.94.77l-.02-.34c.62-.43.73.64 1.31.49l-.12-.29c.42-.4.64.33 1.08.33l.03-.2c.33-.2.78.3 1.02.33-.01-.2.1-.45.38-.36.46.08.94.45 1.45.18.44-.06.81-.52 1.24-.36-.01.5-.73.62-1.05 1.02-2 1.15-3.4 2.72-4.87 4.62-.25.17-.15.61-.53.59-.18-.07-.15-.23-.16-.39.79-.94 1.38-1.89 2.18-2.82.1-.46.66-.77.72-1.26a.677.677 0 0 0-.57-.19c-.59-.27-1.38.11-1.88-.02-1.33.21-2.88.41-4.08.43-.95 1.03-2.03 2.19-3.21 2.99-.75.24-1.35.97-2.24.78-.69-.27-.2-1.15-.39-1.68-.87.25-1.78.35-2.48.91-1.62.44-1.23-1.62-2.14-2.25-1.56-.78-3.33-.95-4.97-1.52-.96-.05-2.17-.89-2.87.23-1.2.46-.9 1.89-1.98 2.47-.31.1-.64-.05-.89-.25-.3-.42-.66-.81-.81-1.32-.61-.61-.33-1.69-1.07-2.21-1.22 0-2.47-.51-3.67.01-1.14.9-3.13 1.46-2.83 3.33.15.47.8.08.85.62-.32.7-.45 1.46-.71 2.18-.27.88-.86 1.89-.25 2.82.15.27.37.6.6.75.06-.44.15-.89.42-1.24.8-.76 2.07-.95 3.11-.74.93.23 1.78.65 2.7.78.56.33 1.26.28 1.79.61 2.39.82 4.74 1.74 7.12 2.56.62.33 1.4.37 1.83.97 1.37 1.01 2.51 2.43 4.18 2.93 2.78.28 5.66.17 8.56-.14 1.61-.28 2.98-1.16 4.1-2.39l.1-.01c.24-.35.58-.71.91-1.01 1.26-1.59 2.42-3.07 3.6-4.73.23-.27.32-.68.66-.86.27 1.41-.91 2.57-1.53 3.74-2.4 3.91-4.98 7.53-8.24 11-.12.03-.09.27-.25.23-.45.98-1.65.67-2.45 1.09-1.01.31-1.9.8-2.95 1.01-.12-.05-.27-.15-.37-.1l.01.22c-.07.26-.27.49-.53.59-.25-.51-.51-1-.7-1.53h-.04l.01.12h.04c.16.75.4 1.6.34 2.35-.2.09-.32.46-.59.29-.14-.69-.37-1.36-.76-1.92l.26 2.21c.06.38.12.83 0 1.18-.14.03-.21-.13-.31-.2-.48-1.2-1.27-2.18-1.91-3.27.03-.2.04-.46.23-.57.49.52.86 1.1 1.17 1.68h.06c-.28-1.11-.73-2.1-1.09-3.17.07-.18.23-.15.37-.16.5.35.9.79 1.34 1.19-.07-.58-.49-.98-.7-1.49-.74-1.14-2.05-1.62-3.08-2.32-1.57-.48-2.11-2.01-3.05-3.13-.38-.3-.8-.68-1.29-.49-.62.35-.99.93-1.43 1.42-.93 1.37-1.85 2.94-2.25 4.54-.76 1.64.25 3.33.48 4.94.19.91.39 1.78.73 2.58.33 2.03 2.14 2.97 3.55 4.28.21.13.48.34.69.49.5.31 1.09.56 1.49.96-.29.5-.84.06-1.25.29 2.36 3.44 4.9 6.86 7.34 10.29.31.14.25.67.66.71 2.26-3.08 4.48-6.24 6.73-9.36h.08c1.85-2.86 4.06-5.62 5.99-8.48-.11-.67-.69-1.27-.76-2-.78-.02-1.29.69-2.08.55l-.01-.22c.71-.52 1.41-1.05 2.16-1.51.76-.7 1.56-1.18 2.35-1.86.96-1.49 2.24-3.1 3.02-4.66.52-.79 1.08-1.66 1.49-2.48 1.27-1.79 2.18-3.86 3.2-5.81-.18-4.96-.63-9.9-3.55-13.61.01-.16-.1-.38.06-.48.44-.3.71.24.98.47.13.13.14.39.32.42.21-.83.25-1.66.43-2.43"/><path fill="#FFF" d="M39.55 8.99c.09.18.32.36.25.59l-1.23-.06c-.03-.56-.33-1-.81-1.28-.36-.04-.79-.1-.99.19-.04.38.53.25.42.72-.3.34-.52-.09-.83-.14-.15.13-.19.29-.2.45-.52.09-1.13.16-1.62.05.04-.46.28-.84.42-1.24.56-.77 1.48-1.11 2.32-.88.94.25 1.77.78 2.27 1.6M14.97 16.11c-.19 1.41-1.98 1.52-2.33 3-.21.21-.4.46-.72.34-.89-.84-1.41-2.11-1.14-3.39.93-.67 2.29-.98 3.41-.66.29.27.71.27.78.71M32.2 17.8c-.04.7-.59.91-1.03 1.44-.92.85-2.06 1.93-3.44 2.02-.19-.89.18-1.89-.01-2.8-.07-.1-.27-.17-.36-.02-.15.55-.41.96-.83 1.37-.81.14-1.54.52-2.24.9-.43.18-.5-.34-.73-.52-.09-.66-.74-1.44-.11-2.06.77-.6 1.67-1.03 2.76-.88.94-.09 1.7 1.13 2.53.13 1.02-.98 2.57-.4 3.46.42"/></symbol></svg>