<?xml version="1.0" encoding="utf-8"?>
<!-- Generator: Adobe Illustrator 21.0.0, SVG Export Plug-In . SVG Version: 6.00 Build 0)  -->
<!DOCTYPE svg PUBLIC "-//W3C//DTD SVG 1.1//EN" "http://www.w3.org/Graphics/SVG/1.1/DTD/svg11.dtd">
<svg version="1.1" id="Layer_1" xmlns="http://www.w3.org/2000/svg" xmlns:xlink="http://www.w3.org/1999/xlink" x="0px" y="0px"
	 width="77.9px" height="88.2px" viewBox="0 0 77.9 88.2" style="enable-background:new 0 0 77.9 88.2;" xml:space="preserve">
<style type="text/css">
	.st0{display:none;}
	.st1{display:inline;stroke:#FFFFFF;stroke-width:3.2088;stroke-linecap:round;stroke-miterlimit:10;}
</style>
<g class="st0">
	<rect x="-251.7" y="-127.4" class="st1" width="1175.6" height="710.1"/>
</g>
<g>
	<path d="M69.2,60l8.7-3.8l-8.2-2.1l2.3-8.5l-7.2,5.8c-5-6-13-9.2-21.2-7.8c-12.2,2.1-20.4,13.8-18.3,26.1c0.1,0.3,0.1,0.7,0.2,1
		l-4.1-2.5c-2.8-1.7-6.2-1.9-6.2,0.3c0,1.6,2.1,3.5,4.4,4.5c0,0-0.1,0.1-0.1,0.1c-2.4,0.1-4.6,1.2-4.6,2.9c0,0.8,0.6,1.6,1.5,2.1
		c0.8,0.5,1.9,0.8,3,0.8c0,0,0.1,0.1,0.1,0.1c-2.4,1-4.6,3-4.6,4.7c0,2.2,3.5,1.9,6.4,0.2l5.7-3.4l1.1-0.7l1.2-0.7
		c4.9,6.7,13.4,10.5,22.1,8.9c12.3-2.1,20.4-13.8,18.3-26.1C69.5,61.2,69.4,60.6,69.2,60z M54.8,64.2c-2.8,0.5-5.5-1.4-6-4.2
		c-0.5-2.8,1.4-5.5,4.2-6c2.8-0.5,5.5,1.4,6,4.2C59.5,61,57.6,63.7,54.8,64.2z"/>
	<path d="M38.2,33c2.4-3.4,3.8-7.5,3.8-12C42,9.4,32.6,0,21,0S0,9.4,0,21s9.4,21,21,21c4.5,0,8.7-1.4,12.1-3.9l5.3,1.7
		c0.7,0.2,1.8-1,1.6-1.6L38.2,33z M30.5,19.9l-6.1,8c-1.1,1.5-2.9,1.9-4.4,1.3c-1-0.2-1.9-0.7-2.6-1.6l-5.6-7.4
		c-1.6-2.1-1.4-5.4,0.4-7.2s4.7-1.6,6.3,0.5l2.6,3.3l2.8-3.7c1.5-1.9,4.1-2.1,5.8-0.4l0.5,0.6C31.8,15,32,18,30.5,19.9z"/>
</g>
</svg>
