<?xml version="1.0" encoding="utf-8"?>
<!-- Generator: Adobe Illustrator 21.0.0, SVG Export Plug-In . SVG Version: 6.00 Build 0)  -->
<!DOCTYPE svg PUBLIC "-//W3C//DTD SVG 1.1//EN" "http://www.w3.org/Graphics/SVG/1.1/DTD/svg11.dtd">
<svg version="1.1" id="Layer_1" xmlns="http://www.w3.org/2000/svg" xmlns:xlink="http://www.w3.org/1999/xlink" x="0px" y="0px"
	 width="3.2px" height="4px" viewBox="0 0 3.2 4" style="enable-background:new 0 0 3.2 4;" xml:space="preserve">
<g>
	<path d="M2.4,2.1c0.1,0,0.1,0,0.2-0.1C2.7,2,2.9,2.1,2.9,2.3c0,0.2-0.1,0.4-0.2,0.5c0,0,0,0-0.1,0.1c0.1,0,0.1,0.1,0.1,0.1
		C2.8,3,2.9,3,2.9,3.1C3,3.2,3.1,3.2,3.2,3.4c0,0.1,0,0.2,0,0.2C3,3.7,2.9,3.7,2.9,3.8C2.6,3.8,2.3,3.9,2,3.9c-0.1,0-0.2,0-0.4,0
		c0,0-0.1,0-0.1-0.1c0,0,0.1,0,0.1,0c0.3,0,0.6-0.1,0.9-0.2c0.1,0,0.2-0.1,0.2-0.2C3,3.4,3,3.3,2.9,3.2C2.8,3.1,2.6,3,2.4,3
		C2.3,3,2.2,3,2.1,3.2c0,0,0.1,0,0.2,0.1c0.1,0.1,0.1,0.2,0,0.2c-0.1,0-0.1,0.1-0.2,0.1C1.8,3.7,1.4,3.7,1,3.7
		c-0.1,0-0.2-0.1-0.3-0.2c0-0.1,0-0.1,0-0.2c0,0-0.1-0.1-0.1-0.2c-0.1,0-0.1,0-0.2,0.1c-0.1,0-0.2,0.1-0.2,0.2
		c0,0.1,0.1,0.2,0.2,0.3c0.1,0.1,0.2,0.1,0.3,0.2C0.8,3.9,0.9,3.9,1,4c0,0,0,0,0,0c-0.3,0-0.6-0.1-0.8-0.3c-0.2-0.2-0.2-0.4,0.1-0.6
		c0.1,0,0.1-0.1,0.2-0.1c0,0,0-0.1-0.1-0.1C0.3,2.7,0.2,2.5,0.2,2.3c0-0.3,0.1-0.4,0.4-0.4C0.5,2,0.4,2,0.4,2c0,0.1,0.1,0.2,0.1,0.2
		C1,2,1.5,1.9,2.1,2.1C2.2,1.9,2.2,1.7,2,1.6c-0.2-0.1-0.3-0.1-0.5,0c-0.1,0-0.2,0.1-0.4,0.1c-0.1,0-0.2,0-0.2,0
		c-0.2,0-0.3-0.2-0.2-0.4c0-0.1,0.1-0.2,0.2-0.2C1,1,1.2,0.9,1.4,0.8c0.1-0.1,0.2-0.1,0.2-0.2c0.1-0.1,0.1-0.3-0.1-0.4
		c-0.2-0.1-0.4,0-0.6,0.1c0,0-0.1,0.1-0.1,0.1c-0.1,0,0-0.1,0-0.1C0.8,0.1,1,0.1,1.1,0.1C1.2,0,1.4,0,1.6,0c0.4,0.1,0.5,0.5,0.2,0.8
		C1.6,1,1.4,1.1,1.2,1.2C1.1,1.2,1.1,1.3,1,1.4c0,0.1,0.1,0.1,0.1,0.1c0.2,0,0.3,0,0.5,0c0.2,0,0.3,0,0.4,0.1
		c0.1,0.1,0.2,0.2,0.2,0.4C2.3,2,2.4,2,2.4,2.1z M0.5,2.6C0.5,2.6,0.5,2.7,0.5,2.6C0.6,3,0.8,3.2,1,3.4c0.3,0.2,0.6,0.2,0.9-0.1
		c0.2-0.3,0.3-0.6,0.2-1C1.7,2.7,1.1,2.7,0.5,2.6z M2.3,2.8C2.3,2.8,2.3,2.9,2.3,2.8c0.2-0.1,0.3-0.3,0.4-0.5c0,0,0-0.1,0-0.1
		c0,0-0.1,0-0.1,0c-0.1,0-0.1,0.1-0.2,0.2C2.4,2.5,2.3,2.7,2.3,2.8z"/>
</g>
</svg>
