<?xml version="1.0" encoding="utf-8"?>
<!-- Generator: Adobe Illustrator 21.0.0, SVG Export Plug-In . SVG Version: 6.00 Build 0)  -->
<!DOCTYPE svg PUBLIC "-//W3C//DTD SVG 1.1//EN" "http://www.w3.org/Graphics/SVG/1.1/DTD/svg11.dtd">
<svg version="1.1" id="Layer_1" xmlns="http://www.w3.org/2000/svg" xmlns:xlink="http://www.w3.org/1999/xlink" x="0px" y="0px"
	 width="91.1px" height="79.8px" viewBox="0 0 91.1 79.8" style="enable-background:new 0 0 91.1 79.8;" xml:space="preserve">
<path d="M64.9,14.5c0-0.3,0-0.6-0.1-0.9c-0.7-2.8-1.9-4.8-2.9-6.1C55-1.3,40.6,0.1,39.6,0.1c0,0,0,0-0.1,0c-1.1,0-14.6-1.3-21.2,7.2
	c-1.6,2.1-2.5,4.4-2.9,6.3c-0.1,0.3-0.1,0.9-0.1,1.2l3.1,56.3l0,0L17.8,78c0.2,0.6,0.6,0.5,0.9,0.7c1.7,1.4,5,1.1,6.1,1
	c0.2,0,0.4,0,0.6-0.1c1,0,4.1,0.1,5.8-1.2c0.5-0.4,0.7-0.4,0.9-0.8l-0.3-3.1c-0.4-2,1.4-3.4,3.6-3.4h9.3c2.3,0,4,1.4,3.8,3.5
	l-0.3,3.3c0.2,0.6,0.6,0.5,0.9,0.8c1.7,1.4,5,1.1,6.1,1c0.2,0,0.4,0,0.6,0c1,0,4.1,0.1,5.8-1.2c0.5-0.4,0.7-0.4,0.9-0.8
	c-0.2-2.4-0.4-4.8-0.6-7.2L64.9,14.5z M39.9,37.1c-7.8,0-14.1-6.3-14.1-14s6.3-14,14.1-14S54,15.4,54,23.1S47.7,37.1,39.9,37.1z
	 M39.9,14.8c-4.6,0-8.4,3.7-8.4,8.3s3.8,8.3,8.4,8.3s8.4-3.7,8.4-8.3S44.5,14.8,39.9,14.8z M43.2,29.1c-0.7,0-1.4-0.6-1.4-1.3
	s0.6-1.3,1.4-1.3c0.7,0,1.4,0.6,1.4,1.3S44,29.1,43.2,29.1z M43.2,23.8c-1.7,0-3.1-1.4-3.1-3c0-1.7,1.4-3,3.1-3s3.1,1.4,3.1,3
	C46.3,22.4,44.9,23.8,43.2,23.8z M33.5,36.1c-0.4-0.2-0.8-0.4-1.4-0.4c-0.9,0-1.9,0.4-2.7,0.7c-1.3,0.6-2,1.7-2.8,2.8
	c-0.5,0.8-1,1.6-1.7,2.2c-0.2,0.2-0.4,0.4-0.6,0.6l0,0c-1.3,1.4-2.2,3.2-3,4.9c-0.8,1.6-1.7,3.3-2.9,4.7c-1.7,1.8-2.9,3.9-4.2,5.9
	c-1.3,2.1-2.6,4.2-4.3,6.1c-2.5,2.7-5.5,4.8-8.6,6.1c-0.9,0.4-1.4,1.1-1.3,1.9c0,0.8,0.5,1.5,1.3,1.8c1.7,0.6,3.3,0.8,5,0.8
	c0.2,0,0.4,0,0.6,0c2.6-0.1,7.4-0.8,10.1-3.9c0.3-0.4,0.9-1,1.6-1.6c0.8-0.8,1.6-1.6,2-2.1c3-3.6,5.8-5.2,9.6-6.6
	c0.8-0.3,1.3-1.1,1.3-1.9C31.2,51.3,32,42.3,33.5,36.1z M7.1,73.1c-1.3,0.1-2.4-0.3-2.5-1.1c-0.1-0.7,0.9-1.5,2.2-1.6
	s2.4,0.3,2.5,1.1C9.3,72.3,8.4,73,7.1,73.1z M14,70.9c-1.5,0.5-2.9,0.2-3.2-0.7c-0.3-0.9,0.6-2,2.1-2.5s2.9-0.2,3.2,0.7
	C16.4,69.2,15.5,70.4,14,70.9z M20,66.4c-0.6,0.8-1.8,1-2.7,0.4c-0.9-0.6-1.1-1.8-0.5-2.6c0.6-0.8,1.8-1,2.7-0.4
	C20.4,64.4,20.6,65.6,20,66.4z M90.1,24.7c-2.8-0.9-5.3-1.2-7.6-1c-3.5,0.4-6.6,2.1-8.2,4.7c-0.8,1.4-1.3,2.9-1.7,4.4
	c-0.3,1.2-0.7,2.5-1.2,3.6c-0.8,1.7-2.1,3.1-3.7,4.2c-1.6,1.1-3.5,1.7-5.3,1.8c-0.2,0-0.4,0-0.6,0c-1.7,0-3.4-0.4-4.9-1.2
	c-1.7-0.9-3.1-2.2-4.1-3.7c-1.8,3.2-3.6,6.3-5.4,9.5c-0.4,0.7-0.8,1.4-1,2.2c-0.3,1.4,0.1,3.4,2.1,5.2c1.2,1,2.7,1.8,4.9,2.5
	c3,1,6.3,1.8,10,2.3c3.3,0.5,7,0.8,9.9-1c3.1-1.9,4.5-5.6,5.7-9.5c1.1-3.6,2.2-7.2,3.3-10.7c1.3-4.3,3.1-9.1,7.2-10.9
	c0.2-0.1,0.4-0.2,0.6-0.3c0.1,0,0.2-0.1,0.3-0.1c0.5-0.2,0.7-0.6,0.7-1.1C90.7,25.1,90.5,24.8,90.1,24.7z M67.2,57.6
	c-1.6,0.2-3.1-0.5-3.2-1.5c-0.1-1,1.1-2.1,2.8-2.3c1.6-0.2,3.1,0.5,3.2,1.5C70.1,56.4,68.9,57.4,67.2,57.6z M74.2,53.8
	c-0.6,0.8-1.7,1-2.5,0.4s-1-1.8-0.5-2.6c0.6-0.8,1.7-1,2.5-0.4C74.5,51.8,74.7,52.9,74.2,53.8z M77.5,48.6c-0.6,1.3-1.8,2.1-2.7,1.6
	c-0.9-0.4-1.2-1.9-0.6-3.2s1.8-2.1,2.7-1.6C77.8,45.8,78.1,47.2,77.5,48.6z M80.3,41.2c-0.3,1.4-1.4,2.4-2.4,2.1
	c-1-0.3-1.5-1.6-1.1-3c0.3-1.4,1.4-2.4,2.4-2.1C80.1,38.4,80.6,39.8,80.3,41.2z M80.3,35.9c-0.9,0.1-1.8-0.4-1.9-1.2
	C78.3,34,79,33.3,80,33.2c0.9-0.1,1.8,0.4,1.9,1.2C81.9,35.1,81.2,35.8,80.3,35.9z M83.8,30.1c-1.1,1.1-2.5,1.4-3.2,0.7
	s-0.3-2.1,0.8-3.1s2.5-1.4,3.2-0.7C85.3,27.6,84.9,29,83.8,30.1z"/>
</svg>
